<svg width="19" height="19" viewBox="0 0 19 19" fill="none" xmlns="http://www.w3.org/2000/svg">
<path d="M6.85947 5.83188C6.97763 5.71027 7.0991 5.58916 7.21751 5.47119C7.22055 5.46817 7.22358 5.46515 7.22661 5.46213L7.228 5.46074C7.57959 5.11048 7.73451 4.74265 7.73688 4.40551C7.7369 4.40289 7.73691 4.40026 7.73691 4.39764C7.73691 4.05656 7.58478 3.68672 7.22964 3.33616L7.228 3.33454L7.228 3.33454L7.22539 3.33193L6.05246 2.16344L6.52177 5.51181L6.85187 5.83964M6.85947 5.83188C6.85976 5.83159 6.86005 5.8313 6.86033 5.83101L6.88526 5.85546C6.88474 5.85598 6.88422 5.8565 6.88369 5.85702L6.85867 5.83271C6.85894 5.83244 6.85921 5.83216 6.85947 5.83188ZM6.85947 5.83188C6.85694 5.83447 6.8544 5.83705 6.85187 5.83964M6.85187 5.83964L6.87654 5.86414C6.87622 5.86447 6.8759 5.86479 6.87557 5.86512L6.85187 5.83964Z" stroke="white"/>
</svg>
