<svg width="27" height="27" viewBox="0 0 27 27" fill="none" xmlns="http://www.w3.org/2000/svg">
<path d="M23.5722 25.1872L23.5934 25.1616C23.9117 24.7752 24.2693 24.4264 24.6201 24.0844C24.6476 24.0575 24.6752 24.0306 24.7027 24.0038L24.7052 24.0013C24.964 23.7521 25.2251 23.4949 25.4737 23.234L25.4739 23.2338C25.9918 22.6909 26.2233 22.1061 26.2222 21.5556C26.2211 21.0062 25.9884 20.4335 25.47 19.9122L22.1296 16.5525L22.1228 16.5457L22.1229 16.5457C21.635 16.0357 21.082 15.7944 20.5277 15.7944C19.9725 15.7944 19.411 16.0366 18.9036 16.547L16.9138 18.5482L16.6421 18.8214L16.3086 18.6284C16.14 18.5307 15.9641 18.4421 15.7843 18.3517C15.5626 18.2402 15.3357 18.1236 15.128 17.9907C13.264 16.8003 11.58 15.2526 9.97907 13.2783L9.97419 13.2723L9.97424 13.2722C9.16271 12.2392 8.60223 11.3518 8.20728 10.4328L8.06652 10.1053L8.33024 9.86551C8.83991 9.40198 9.31937 8.91455 9.79114 8.42892L23.5722 25.1872ZM23.5722 25.1872C22.7674 26.0579 21.7959 26.4777 20.5555 26.4777C20.4439 26.4777 20.3362 26.4729 20.2106 26.4674L20.2048 26.4672C18.2452 26.3386 16.4687 25.593 15.0979 24.9397C11.5285 23.1994 8.40055 20.7401 5.79993 17.6137C3.65041 15.016 2.21535 12.5996 1.26583 10.0075L1.26539 10.0063C0.648468 8.33543 0.424092 6.99041 0.522117 5.74791C0.601409 4.79864 0.978077 3.98661 1.65113 3.30968L3.72551 1.22338L23.5722 25.1872ZM23.6022 25.1553C23.6032 25.1542 23.6035 25.154 23.6025 25.1549L23.6022 25.1553ZM0.881938 5.78017L0.881911 5.78017L0.881497 5.7854C0.784959 7.00513 1.02356 8.3161 1.61141 9.89485C2.55727 12.4618 3.9844 14.8465 6.08568 17.3905L6.08664 17.3916C8.649 20.475 11.7399 22.9068 15.2621 24.621L15.265 24.6224C16.5484 25.2368 18.3161 25.9888 20.2399 26.1127L20.2425 26.1128C20.3357 26.1183 20.4497 26.1249 20.561 26.1249C21.6772 26.1249 22.5744 25.7474 23.3131 24.9464L23.3218 24.9369L23.3301 24.927C23.6597 24.5302 24.024 24.1744 24.3976 23.8097C24.4167 23.791 24.4359 23.7722 24.4551 23.7535C24.7167 23.5016 24.9683 23.2545 25.2105 22.9936C25.6032 22.5816 25.855 22.1075 25.8591 21.5865C25.8632 21.0602 25.6141 20.5897 25.2176 20.1909L25.2173 20.1907L21.8721 16.8318C21.6183 16.5592 21.1523 16.1808 20.5277 16.1808C20.0086 16.1808 19.5383 16.4412 19.156 16.8257L17.0772 18.9164C16.9916 19.0025 16.8301 19.1491 16.6037 19.1491C16.5144 19.1491 16.4149 19.1277 16.2945 19.0654L16.2945 19.0653L16.2909 19.0635C16.2899 19.063 16.2876 19.0616 16.2831 19.059L16.2815 19.0581C16.2759 19.0549 16.2665 19.0495 16.2548 19.0431C16.0527 18.9154 15.8334 18.8027 15.6187 18.6948C15.5748 18.6722 15.5319 18.6503 15.4899 18.6289C15.288 18.5261 15.1062 18.4335 14.9322 18.3196L14.9323 18.3196L14.9274 18.3165C13.0454 17.1144 11.3288 15.5491 9.69101 13.5178C8.78864 12.3764 8.22212 11.4357 7.81642 10.4589C7.81189 10.4464 7.80803 10.4368 7.80611 10.4319L7.80563 10.4308C7.8056 10.4307 7.80557 10.4306 7.80553 10.4305C7.76037 10.2929 7.74088 10.1829 7.75327 10.0815C7.76427 9.99154 7.8055 9.86531 7.96517 9.70472L7.96719 9.70268L7.9691 9.70077L7.97263 9.69721L7.9743 9.69553L7.9745 9.69533L7.97471 9.69512L7.97491 9.69492L7.97511 9.69472L7.97591 9.69391L7.97906 9.69074L7.98233 9.68745C8.48418 9.23969 8.94263 8.77321 9.41048 8.29716C9.44959 8.25737 9.48876 8.21751 9.52803 8.17759C9.61518 8.08993 9.70209 8.00112 9.78738 7.91396L9.78826 7.91305C9.87465 7.82476 9.9594 7.73815 10.0439 7.65316C10.4411 7.25366 10.7118 6.78209 10.7118 6.25528C10.7118 5.72848 10.4411 5.2569 10.0439 4.8574L8.39003 3.19402C8.29304 3.09371 8.19626 2.99497 8.10151 2.89831L8.09899 2.89573C8.00221 2.797 7.90761 2.70048 7.81461 2.60419L7.81462 2.60418L7.8121 2.60161C7.76248 2.55098 7.7131 2.50046 7.66385 2.4501C7.34514 2.12413 7.03255 1.80443 6.70343 1.49765C6.32138 1.11013 5.85832 0.869566 5.354 0.869566C4.84705 0.869566 4.37261 1.10766 3.98298 1.48602L3.98293 1.48596L3.97674 1.49218L1.90912 3.57169C1.29206 4.19228 0.958908 4.92219 0.881938 5.78017Z" stroke="#CBCBCB"/>
</svg>
